<svg width="100" height="123.5622968580715" viewBox="0 0 410.22222222222223 128" class="looka-1j8o68f"><defs id="SvgjsDefs1650"></defs><g id="SvgjsG1651" featurekey="symbolContainer" transform="matrix(1,0,0,1,0,0)" fill="#000000">    <rect width="118" height="128"></rect></g><g id="SvgjsG1652" featurekey="monogramFeature-0" transform="matrix(2.242727136486499,0,0,2.242727136486499,16.366784434382893,-22.81238089001438)" fill="#ffffff"><path d="M19.8 60.6 c-10.98 0 -18.18 -5.58 -18.18 -10.92 c0 -2.52 1.32 -4.26 4.32 -4.26 c6.48 0.06 5.28 11.22 14.28 11.22 c3.48 0 5.7 -1.86 5.7 -4.98 c0 -11.7 -23.52 -4.26 -23.58 -21.84 c0 -7.62 6.36 -12.96 16.26 -12.96 c9.96 0 17.28 5.28 17.22 10.74 c0 2.64 -1.5 4.38 -4.56 4.38 c-7.26 0 -5.4 -11.22 -12.84 -11.22 c-3.78 0 -5.58 2.34 -5.58 5.28 c0 12.84 23.46 5.34 23.46 22.14 c0 7.92 -7.62 12.42 -16.5 12.42 z"></path></g><g id="SvgjsG1653" featurekey="nameFeature-0" transform="matrix(2.3140277425585913,0,0,2.3140277425585913,134.76035983632067,3.8052066604219696)" fill="#000000"><path d="M11 11.52 c4.36 0 7.56 2.88 8.76 5.88 l-2.52 1.36 c-1.28 -2.56 -3.32 -4.24 -6.24 -4.24 c-3.08 0 -5.2 1.76 -5.2 4.2 c0 2.28 1.44 3.72 4.48 4.88 l2.04 0.76 c5.04 1.88 8.2 4.04 8.2 8.48 c0 4.8 -4.6 7.76 -9.36 7.76 s-8.68 -2.88 -9.76 -6.88 l2.68 -1.28 c0.96 2.96 3.48 5.12 7.08 5.12 c3.2 0 5.92 -1.84 5.92 -4.68 c0 -3.2 -2.24 -4.4 -5.56 -5.68 l-2.08 -0.8 c-4.24 -1.6 -6.96 -3.8 -6.96 -7.76 c0 -4.08 3.6 -7.12 8.52 -7.12 z M33.64 21.96 l-4.4 0 l0 13.4 c0 1.24 0.48 2 1.68 2 c1.04 0 1.8 -0.24 2.68 -0.64 l0 2.8 c-0.88 0.44 -1.92 0.72 -3.56 0.72 c-2.12 0 -4.04 -0.96 -4.04 -4.6 l0 -13.68 l-2.88 0 l0 -2.76 l2.88 0 l0 -4.88 l3.24 0 l0 4.88 l4.4 0 l0 2.76 z M48.32000000000001 18.88 c0.36 0 0.68 0 1 0.08 l0 3.08 c-0.32 -0.08 -0.68 -0.08 -0.96 -0.08 c-3.96 0 -7.2 2.84 -7.76 7.52 l0 10.52 l-3.28 0 l0 -20.8 l3.28 0 l0 5.48 c0.76 -3.08 3.6 -5.8 7.72 -5.8 z M62.360000000000014 18.84 c3.68 0 6.52 2.04 7.48 4.28 l0 -3.92 l3.28 0 l0 20.8 l-3.28 0 l0 -4 c-0.96 2.4 -3.8 4.4 -7.48 4.4 c-4.72 0 -10.44 -3.56 -10.44 -10.8 c0 -7.16 5.72 -10.76 10.44 -10.76 z M62.72000000000001 21.76 c-3.52 0 -7.6 2.6 -7.6 7.84 c0 5.28 4.08 7.88 7.6 7.88 c3.56 0 7.28 -2.52 7.28 -7.88 c0 -5.32 -3.72 -7.84 -7.28 -7.84 z M78.48 17.72 c0 -5.48 3.64 -6.4 6.28 -6.4 c1.72 0 3.32 0.48 4.52 1.24 l-1.2 2.28 c-0.92 -0.44 -1.84 -0.76 -3.04 -0.76 c-2.2 0 -3.28 1.08 -3.28 3.64 l0 1.48 l5.88 0 l0 2.76 l-5.88 0 l0 18.04 l-3.28 0 l0 -18.04 l-2.28 0 l0 -2.76 l2.28 0 l0 -1.48 z M90.76 19.2 l3.28 0 l0 20.8 l-3.28 0 l0 -20.8 z M108.36000000000001 18.84 c4.72 0 10.68 3.6 10.68 10.8 s-5.96 10.76 -10.68 10.76 s-10.64 -3.56 -10.64 -10.76 s5.92 -10.8 10.64 -10.8 z M108.36000000000001 21.76 c-3.36 0 -7.44 2.6 -7.44 7.88 c0 5.24 4.08 7.84 7.44 7.84 c3.4 0 7.48 -2.6 7.48 -7.84 c0 -5.28 -4.08 -7.88 -7.48 -7.88 z"></path></g></svg>
